# xmcd CD database file
#
# Track frame offsets:
#	150
#	15762
#	37982
#	51975
#	70240
#	85842
#	110385
#	131702
#	159709
#	179365
#	205582
#	229335
#	245290
#	264810
#	283815
#	304160
#
# Disc length: 4306 seconds
#
# Revision: 10
# Processed by: cddbd v1.5.2PL0 Copyright (c) Steve Scherf et al.
# Submitted via: CDex 1.51
#
DISCID=d310d010
DTITLE=Various Artist - Arabian Nights [Mil e uma noites]
DYEAR=1999
DGENRE=Folk
TTITLE0=Khaled - El Arbi
TTITLE1=Mp4 DJ - Arabian Nights (Feiticeira II)
TTITLE2=Dissidenten - Fatamorgana
TTITLE3=Sabah Ali - Busindre Reel
TTITLE4=Amr Diab - Habibe - Radio Mix
TTITLE5=Dimples D - Sucker DJ
TTITLE6=Dania - Leiley (Transglobal Underground Mix)
TTITLE7=Rachid Taha - Ya Rayah
TTITLE8=Amr Diab e Khaled - Albey
TTITLE9=Jaï Yerini - Trancendence
TTITLE10=Snake Raab - KXMR
TTITLE11=Uttal Deejay - Another Arabian Nights
TTITLE12=Ozan Sökmen - Sidikim Groove
TTITLE13=Cheb "Memê" e Cheb Alexis - Kibe-Lezah
TTITLE14=Sheik Amr Feat. Izlene - El Arbi - (Bônus Track)
TTITLE15=Jihad - Fatamorgana 2000 (Bônus Track)
EXTD=YEAR: 1999
EXTT0=
EXTT1=
EXTT2=
EXTT3=
EXTT4=
EXTT5=
EXTT6=
EXTT7=
EXTT8=
EXTT9=
EXTT10=
EXTT11=
EXTT12=
EXTT13=
EXTT14=
EXTT15=
PLAYORDER=
